<?xml version="1.0" encoding="iso-8859-1"?>
<!-- Uploaded to: SVG Repo, www.svgrepo.com, Generator: SVG Repo Mixer Tools -->
<!DOCTYPE svg PUBLIC "-//W3C//DTD SVG 1.1//EN" "http://www.w3.org/Graphics/SVG/1.1/DTD/svg11.dtd">
<svg fill="#000000" version="1.1" id="Capa_1" xmlns="http://www.w3.org/2000/svg" xmlns:xlink="http://www.w3.org/1999/xlink" 
	 width="800px" height="800px" viewBox="0 0 521.501 521.501"
	 xml:space="preserve">
<g>
	<path d="M491.232,169.447h-20.168c-5.284,0-10.184,1.472-14.505,3.854l-18.985-14.428c-10.474-7.953-23.478-12.336-36.9-12.336
		l-158.3,0.709c-33.375,0.151-60.399,27.423-60.254,60.798c0.05,11.277,3.215,21.837,8.68,30.88
		c-25.312-14.49-54.287-39.144-85.904-73.279c-11.411-12.324-27.606-19.387-44.414-19.387c-15.285,0-29.891,5.722-41.118,16.113
		c-24.482,22.68-25.945,61.052-3.274,85.541c50.631,54.663,128.728,127.33,221.952,127.33H376.25c8.688,0,17.112-1.826,25.038-5.426
		l44.39-20.168c1.714-0.779,3.322-1.726,4.936-2.653c5.396,4.971,12.531,8.08,20.457,8.08h20.168
		c16.716,0,30.263-13.548,30.263-30.264V199.71C521.495,182.992,507.942,169.447,491.232,169.447z M441.517,331.267
		c-1.1,0.632-2.181,1.312-3.369,1.844l-44.378,20.174c-5.544,2.518-11.443,3.794-17.525,3.794H238.036
		c-86.111,0-160.312-69.351-208.629-121.513c-15.876-17.142-14.848-44.003,2.293-59.876c7.864-7.27,18.075-11.278,28.774-11.278
		c11.774,0,23.111,4.944,31.105,13.571c57.984,62.613,107.271,94.359,146.457,94.359h127.055c1.307,0,2.583-0.277,3.759-0.815
		l10.208-4.64c3.901-1.773,6.029-6.026,5.119-10.214c-0.922-4.164-4.61-7.137-8.878-7.137c-0.012,0-0.024,0-0.036,0l-132.616,0.6
		c-23.253,0-42.259-18.92-42.369-42.182c-0.109-23.356,18.817-42.451,42.182-42.555l158.497-0.709c9.203,0,18.306,3.07,25.635,8.638
		l17.354,13.187c-1.963,4.001-3.145,8.443-3.145,13.196V324.8C440.802,327.028,441.073,329.186,441.517,331.267z"/>
</g>
</svg>
